<svg xmlns="http://www.w3.org/2000/svg" width="46.089" height="33.223" viewBox="0 0 46.089 33.223">
  <g id="header-1-1-menu" transform="translate(0.044 0)">
    <path id="Path_3112" data-name="Path 3112" d="M44.083,126.5H1.917a1.917,1.917,0,1,1,0-3.833H44.083a1.917,1.917,0,1,1,0,3.833Zm0,0" transform="translate(0 -107.973)" fill="#fff"/>
    <path id="Path_3113" data-name="Path 3113" d="M44.083,3.833H1.917A1.917,1.917,0,0,1,1.917,0H44.083a1.917,1.917,0,1,1,0,3.833Zm0,0" fill="#fff"/>
    <path id="Path_3114" data-name="Path 3114" d="M44.083,249.165H1.917a1.917,1.917,0,1,1,0-3.833H44.083a1.917,1.917,0,1,1,0,3.833Zm0,0" transform="translate(0 -215.943)" fill="#fff"/>
  </g>
</svg>
